<svg xmlns="http://www.w3.org/2000/svg" viewBox="0 0 1440 320">
  <path fill="#ff7d66" fill-opacity="1" d="M0,224L6.2,192C12.3,160,25,96,37,96C49.2,96,62,160,74,202.7C86.2,245,98,267,111,240C123.1,213,135,139,148,133.3C160,128,172,192,185,208C196.9,224,209,192,222,165.3C233.8,139,246,117,258,117.3C270.8,117,283,139,295,176C307.7,213,320,267,332,250.7C344.6,235,357,149,369,128C381.5,107,394,149,406,165.3C418.5,181,431,171,443,176C455.4,181,468,203,480,197.3C492.3,192,505,160,517,144C529.2,128,542,128,554,149.3C566.2,171,578,213,591,197.3C603.1,181,615,107,628,101.3C640,96,652,160,665,154.7C676.9,149,689,75,702,80C713.8,85,726,171,738,192C750.8,213,763,171,775,149.3C787.7,128,800,128,812,154.7C824.6,181,837,235,849,213.3C861.5,192,874,96,886,58.7C898.5,21,911,43,923,69.3C935.4,96,948,128,960,160C972.3,192,985,224,997,229.3C1009.2,235,1022,213,1034,224C1046.2,235,1058,277,1071,261.3C1083.1,245,1095,171,1108,160C1120,149,1132,203,1145,197.3C1156.9,192,1169,128,1182,133.3C1193.8,139,1206,213,1218,240C1230.8,267,1243,245,1255,202.7C1267.7,160,1280,96,1292,58.7C1304.6,21,1317,11,1329,16C1341.5,21,1354,43,1366,58.7C1378.5,75,1391,85,1403,96C1415.4,107,1428,117,1434,122.7L1440,128L1440,320L1433.8,320C1427.7,320,1415,320,1403,320C1390.8,320,1378,320,1366,320C1353.8,320,1342,320,1329,320C1316.9,320,1305,320,1292,320C1280,320,1268,320,1255,320C1243.1,320,1231,320,1218,320C1206.2,320,1194,320,1182,320C1169.2,320,1157,320,1145,320C1132.3,320,1120,320,1108,320C1095.4,320,1083,320,1071,320C1058.5,320,1046,320,1034,320C1021.5,320,1009,320,997,320C984.6,320,972,320,960,320C947.7,320,935,320,923,320C910.8,320,898,320,886,320C873.8,320,862,320,849,320C836.9,320,825,320,812,320C800,320,788,320,775,320C763.1,320,751,320,738,320C726.2,320,714,320,702,320C689.2,320,677,320,665,320C652.3,320,640,320,628,320C615.4,320,603,320,591,320C578.5,320,566,320,554,320C541.5,320,529,320,517,320C504.6,320,492,320,480,320C467.7,320,455,320,443,320C430.8,320,418,320,406,320C393.8,320,382,320,369,320C356.9,320,345,320,332,320C320,320,308,320,295,320C283.1,320,271,320,258,320C246.2,320,234,320,222,320C209.2,320,197,320,185,320C172.3,320,160,320,148,320C135.4,320,123,320,111,320C98.5,320,86,320,74,320C61.5,320,49,320,37,320C24.6,320,12,320,6,320L0,320Z"></path>
</svg>